<?xml version="1.0" encoding="UTF-8" standalone="no"?>
<svg
   xmlns:dc="http://purl.org/dc/elements/1.1/"
   xmlns:cc="http://creativecommons.org/ns#"
   xmlns:rdf="http://www.w3.org/1999/02/22-rdf-syntax-ns#"
   xmlns:svg="http://www.w3.org/2000/svg"
   xmlns="http://www.w3.org/2000/svg"
   xmlns:sodipodi="http://sodipodi.sourceforge.net/DTD/sodipodi-0.dtd"
   xmlns:inkscape="http://www.inkscape.org/namespaces/inkscape"
   version="1.1"
   id="Layer_1"
   x="0px"
   y="0px"
   width="150"
   height="150"
   viewBox="0 0 4096 4096"
   xml:space="preserve"
   sodipodi:docname="pwc-logo.svg"
   inkscape:export-filename="G:\Users\suitedoalex\sites\svg\pwc-logo-0.png"
   inkscape:export-xdpi="96"
   inkscape:export-ydpi="96"
   inkscape:version="0.92.2 (5c3e80d, 2017-08-06)"><metadata
     id="metadata51"><rdf:RDF><cc:Work
         rdf:about=""><dc:format>image/svg+xml</dc:format><dc:type
           rdf:resource="http://purl.org/dc/dcmitype/StillImage" /><dc:title></dc:title></cc:Work></rdf:RDF></metadata><defs
     id="defs49" /><sodipodi:namedview
     pagecolor="#ffffff"
     bordercolor="#666666"
     borderopacity="1"
     objecttolerance="10"
     gridtolerance="10"
     guidetolerance="10"
     inkscape:pageopacity="0"
     inkscape:pageshadow="2"
     inkscape:window-width="1920"
     inkscape:window-height="1017"
     id="namedview47"
     showgrid="false"
     inkscape:zoom="0.098394576"
     inkscape:cx="147.20556"
     inkscape:cy="905.24991"
     inkscape:window-x="-8"
     inkscape:window-y="-8"
     inkscape:window-maximized="1"
     inkscape:current-layer="Layer_1" /><style
     type="text/css"
     id="style2">
	.st0{fill:#E3731C;}
	.st1{fill:#E669A2;}
	.st2{fill:#F3BC87;}
	.st3{fill:#EE9C34;}
	.st4{fill:#F3BE26;}
	.st5{fill:#DB4E18;}
	.st6{fill:#E88C14;}
	.st7{fill:#D1390D;}
	.st8{fill:#D85604;}
	.st9{fill:#C22303;}
	.st10{fill:#C14303;}
	.st11{fill:#AD1B02;}
</style><g
     id="g44"
     transform="matrix(39.79219,0,0,39.79219,655.27335,993.50697)"
     inkscape:export-xdpi="13.985703"
     inkscape:export-ydpi="13.985703"><polygon
       class="st0"
       points="44.402,3.049 44.402,6.923 44.402,13.285 44.402,16.474 44.402,22.838 52.417,22.838 57.218,22.838 59.739,22.838 66.24,22.838 69.5,22.838 69.5,16.474 66.24,16.474 66.24,6.923 59.739,6.923 59.739,3.049 57.218,3.049 57.218,0.563 44.402,0.563 "
       id="polygon4"
       style="fill:#e3731c" /><g
       id="g42"><g
         id="g12"><path
           d="m 47.221,34.825 c -2.221,0.355 -3.356,1.98 -3.356,4.839 0,2.877 1.512,4.801 3.831,4.801 1.079,0 2.059,-0.355 4.12,-1.356 v 2.327 c -2.473,1.124 -3.929,1.471 -5.921,1.471 -2.157,0 -3.675,-0.567 -4.914,-1.819 -1.27,-1.259 -1.906,-2.921 -1.906,-4.772 0,-4.118 3.077,-6.904 7.573,-6.904 2.986,0 5.039,1.351 5.039,3.335 0,1.278 -0.956,2.157 -2.374,2.157 -0.728,0 -1.326,-0.189 -2.091,-0.629 v -3.45 z"
           id="path6"
           inkscape:connector-curvature="0" /><path
           d="m 36.263,40.317 c 1.991,-2.486 2.694,-3.489 2.694,-4.71 0,-1.215 -0.974,-2.194 -2.275,-2.194 -0.802,0 -1.523,0.375 -1.875,0.765 v 5.064 l -3.262,4.306 v -9.816 h -3.102 l -5.156,8.467 v -8.467 h -1.782 l -4.681,1.13 v 1.185 l 2.553,0.257 v 10.384 h 3.3 l 4.945,-8.05 v 8.05 h 3.614 z"
           id="path8"
           inkscape:connector-curvature="0" /><path
           d="m 6.968,45.089 c 0.351,0.016 0.505,0.016 0.727,0.016 2.658,0 4.083,-1.642 4.083,-4.788 0,-2.664 -1.166,-4.081 -3.318,-4.081 -0.358,0 -0.734,0.043 -1.493,0.134 v 8.719 z m 0,5.674 2.14,0.471 v 1.203 H 0.713 V 51.234 L 2.626,50.763 V 36.237 H 0.5 v -1.246 l 5.136,-1.545 h 1.333 v 1.735 c 2.405,-1.417 3.231,-1.668 4.465,-1.668 2.849,0 4.952,2.603 4.952,6.207 0,4.166 -2.806,6.969 -7.227,6.969 -0.5,0 -1.332,-0.03 -2.19,-0.128 v 4.202 z"
           id="path10"
           inkscape:connector-curvature="0" /></g><g
         id="g40"><rect
           x="66.239998"
           y="16.474001"
           class="st1"
           width="3.26"
           height="6.3639998"
           id="rect14"
           style="fill:#e669a2" /><rect
           x="57.217999"
           y="3.049"
           class="st2"
           width="2.5209999"
           height="3.875"
           id="rect16"
           style="fill:#f3bc87" /><rect
           x="44.402"
           y="0.56300002"
           class="st3"
           width="12.816"
           height="2.4860001"
           id="rect18"
           style="fill:#ee9c34" /><rect
           x="44.402"
           y="3.049"
           class="st0"
           width="12.816"
           height="3.875"
           id="rect20"
           style="fill:#e3731c" /><rect
           x="59.738998"
           y="6.9229999"
           class="st4"
           width="6.5"
           height="9.5509996"
           id="rect22"
           style="fill:#f3be26" /><rect
           x="59.738998"
           y="16.474001"
           class="st5"
           width="6.5"
           height="6.3639998"
           id="rect24"
           style="fill:#db4e18" /><rect
           x="57.217999"
           y="6.9229999"
           class="st6"
           width="2.5209999"
           height="9.5509996"
           id="rect26"
           style="fill:#e88c14" /><rect
           x="57.217999"
           y="16.474001"
           class="st7"
           width="2.5209999"
           height="6.3639998"
           id="rect28"
           style="fill:#d1390d" /><polygon
           class="st8"
           points="57.218,16.474 57.218,6.923 44.402,6.923 44.402,13.285 52.417,13.285 52.417,16.474 "
           id="polygon30"
           style="fill:#d85604" /><rect
           x="52.417"
           y="16.474001"
           class="st9"
           width="4.8010001"
           height="6.3639998"
           id="rect32"
           style="fill:#c22303" /><rect
           x="44.402"
           y="13.285"
           class="st10"
           width="8.0150003"
           height="3.1889999"
           id="rect34"
           style="fill:#c14303" /><rect
           x="44.402"
           y="16.474001"
           class="st11"
           width="8.0150003"
           height="6.3639998"
           id="rect36"
           style="fill:#ad1b02" /><rect
           x="31.551001"
           y="22.837999"
           class="st11"
           width="12.851"
           height="3.1819999"
           id="rect38"
           style="fill:#ad1b02" /></g></g></g></svg>